<?xml version="1.0" standalone="no"?>
<!DOCTYPE svg PUBLIC "-//W3C//DTD SVG 20010904//EN"
 "http://www.w3.org/TR/2001/REC-SVG-20010904/DTD/svg10.dtd">
<svg version="1.0" xmlns="http://www.w3.org/2000/svg"
 width="669.000000pt" height="669.000000pt" viewBox="0 0 669.000000 669.000000"
 preserveAspectRatio="xMidYMid meet">
<metadata>
Created by potrace 1.14, written by Peter Selinger 2001-2017
</metadata>
<g transform="translate(0.000000,669.000000) scale(0.100000,-0.100000)"
fill="#000000" stroke="none">
<path d="M3815 6616 c-176 -41 -384 -153 -590 -316 -129 -103 -408 -389 -601
-615 -221 -260 -255 -296 -635 -680 -168 -170 -360 -368 -425 -440 -66 -71
-131 -143 -147 -160 -15 -16 -33 -37 -40 -45 -31 -34 -248 -332 -304 -415
-267 -402 -452 -856 -518 -1280 -22 -139 -31 -529 -16 -691 29 -309 85 -519
201 -759 176 -365 512 -724 862 -923 421 -238 854 -282 1408 -142 964 243
1637 934 1954 2006 133 448 203 1002 219 1731 1 50 6 89 10 86 5 -3 4 4 -2 15
-6 11 -8 35 -6 53 2 19 5 105 6 191 1 113 5 156 13 151 6 -4 5 0 -2 9 -13 17
-11 340 5 733 13 299 10 669 -6 755 -20 113 -66 248 -108 318 -52 86 -135 167
-209 203 -51 26 -72 30 -137 30 -55 0 -89 -6 -122 -20 l-45 -20 -68 51 c-80
61 -218 129 -322 158 -99 27 -291 35 -375 16z"/>
</g>
</svg>
